#!OML:ASF G:\JayActor3\Patient Classification 1\Patient 1\Session 6\male.ASF
:FULLY-SPECIFIED
:DEGREES
2435
root -5.48601 16.566 -1.2643 38.6038 -84.1549 -39.0285
lowerback 5.66976 -1.3233 0.0266266
upperback -4.49143 -1.86081 -0.652116
thorax -7.92045 -0.950993 -0.466462
lowerneck 9.75589 -7.40539 -2.7777
upperneck -6.81773 -10.5534 -2.58801
head -3.96511 -5.022 0.302184
rclavicle 4.37326e-015 -4.77083e-015
rhumerus -46.4085 12.7477 -82.0139
rradius 35.9761
rwrist 4.17329
rhand -10.6564 -2.58467
rfingers 7.12502
rthumb 15.3515 -31.9948
lclavicle 4.37326e-015 -4.77083e-015
lhumerus -46.6634 -14.4436 80.2567
lradius 41.3731
lwrist 16.1495
lhand 10.2448 6.40706
lfingers 7.12502
lthumb 35.3585 32.8786
rfemur -3.73431 3.81684 19.9834
rtibia 27.2465
rfoot -24.7576 -16.1829
rtoes 2.40458
lfemur -2.01417 6.11366 -10.3509
ltibia 17.2547
lfoot -13.935 5.05246
ltoes -4.0865
2436
root -5.48638 16.568 -1.25828 38.9263 -84.1674 -39.2611
lowerback 5.69916 -1.32211 0.0165281
upperback -4.48507 -1.86032 -0.65656
thorax -7.9306 -0.95018 -0.464904
lowerneck 9.76062 -7.39926 -2.77747
upperneck -6.80961 -10.5461 -2.59823
head -3.96384 -5.01814 0.298396
rclavicle 3.15074e-014 -3.97569e-015
rhumerus -46.4324 12.7391 -82.0483
rradius 35.9711
rwrist 4.16612
rhand -10.6447 -2.59565
rfingers 7.12502
rthumb 15.3627 -32.0049
lclavicle 3.15074e-014 -3.97569e-015
lhumerus -46.6716 -14.4298 80.255
lradius 41.3917
lwrist 16.1185
lhand 10.2594 6.38243
lfingers 7.12502
lthumb 35.3723 32.8507
rfemur -3.81371 3.83907 19.9658
rtibia 27.2071
rfoot -24.738 -16.1781
rtoes 2.43373
lfemur -2.11355 6.15367 -10.3689
ltibia 17.2691
lfoot -13.9407 5.04676
ltoes -4.09362
2437
root -5.48662 16.5701 -1.25185 39.2292 -84.1839 -39.4706
lowerback 5.73189 -1.31942 0.0066936
upperback -4.47844 -1.85785 -0.661607
thorax -7.94241 -0.948414 -0.464301
lowerneck 9.75775 -7.39514 -2.77044
upperneck -6.80187 -10.5411 -2.61604
head -3.96211 -5.01535 0.290831
rclavicle 8.54774e-015 6.36111e-015
rhumerus -46.4535 12.7339 -82.0833
rradius 35.9668
rwrist 4.15215
rhand -10.6375 -2.60589
rfingers 7.12502
rthumb 15.3697 -32.0146
lclavicle 8.54774e-015 6.36111e-015
lhumerus -46.6782 -14.4208 80.2587
lradius 41.4101
lwrist 16.0985
lhand 10.2761 6.37125
lfingers 7.12502
lthumb 35.3882 32.8358
rfemur -3.89966 3.8583 19.9411
rtibia 27.1726
rfoot -24.7205 -16.1683
rtoes 2.46884
lfemur -2.21163 6.19137 -10.3946
ltibia 17.2731
lfoot -13.9429 5.04694
ltoes -4.10195
2438
root -5.48691 16.5723 -1.24513 39.443 -84.1993 -39.5917
lowerback 5.76879 -1.31811 -0.00645043
upperback -4.4689 -1.85746 -0.666929
thorax -7.95346 -0.947449 -0.461812
lowerneck 9.74563 -7.39399 -2.76114
upperneck -6.79171 -10.5398 -2.63833
head -3.9581 -5.01443 0.281161
rclavicle 2.18663e-014 1.59028e-014
rhumerus -46.4704 12.7338 -82.117
rradius 35.9649
rwrist 4.13681
rhand -10.6322 -2.61062
rfingers 7.12502
rthumb 15.3748 -32.019
lclavicle 2.18663e-014 1.59028e-014
lhumerus -46.6812 -14.4119 80.2666
lradius 41.4299
lwrist 16.089
lhand 10.2952 6.3776
lfingers 7.12502
lthumb 35.4062 32.8378
rfemur -3.98564 3.87112 19.9081
rtibia 27.1424
rfoot -24.7102 -16.1564
rtoes 2.51437
lfemur -2.3042 6.23684 -10.4271
ltibia 17.2658
lfoot -13.9422 5.03685
ltoes -4.11734
2439
root -5.48739 16.5744 -1.23813 39.545 -84.2115 -39.6026
lowerback 5.81145 -1.31892 -0.023508
upperback -4.45812 -1.86026 -0.672307
thorax -7.96644 -0.947794 -0.456666
lowerneck 9.73281 -7.39562 -2.75205
upperneck -6.78158 -10.5425 -2.66232
head -3.95405 -5.01537 0.27119
rclavicle 3.18055e-015 6.36111e-015
rhumerus -46.4892 12.7372 -82.1482
rradius 35.9675
rwrist 4.12129
rhand -10.6302 -2.6128
rfingers 7.12502
rthumb 15.3767 -32.021
lclavicle 3.18055e-015 6.36111e-015
lhumerus -46.6844 -14.4045 80.2805
lradius 41.4501
lwrist 16.0891
lhand 10.3158 6.39719
lfingers 7.12502
lthumb 35.4259 32.8527
rfemur -4.06752 3.87594 19.8669
rtibia 27.1138
rfoot -24.7091 -16.1417
rtoes 2.577
lfemur -2.39292 6.30149 -10.4651
ltibia 17.252
lfoot -13.935 5.00023
ltoes -4.13848
2440
root -5.488 16.5766 -1.23097 39.5235 -84.2246 -39.4929
lowerback 5.8595 -1.32182 -0.0497842
upperback -4.44455 -1.86674 -0.67843
thorax -7.97933 -0.949405 -0.446576
lowerneck 9.72036 -7.39893 -2.74244
upperneck -6.7747 -10.5474 -2.68595
head -3.95125 -5.01741 0.261507
rclavicle -5.56597e-015 1.43125e-014
rhumerus -46.5056 12.7466 -82.1793
rradius 35.9698
rwrist 4.10468
rhand -10.6315 -2.60808
rfingers 7.12502
rthumb 15.3754 -32.0164
lclavicle -5.56597e-015 1.43125e-014
lhumerus -46.6875 -14.3959 80.2981
lradius 41.4714
lwrist 16.0943
lhand 10.334 6.42472
lfingers 7.12502
lthumb 35.443 32.8762
rfemur -4.14338 3.88364 19.8162
rtibia 27.085
rfoot -24.7169 -16.1317
rtoes 2.65781
lfemur -2.47692 6.37904 -10.5128
ltibia 17.234
lfoot -13.92 4.94063
ltoes -4.13957
2441
root -5.48874 16.5787 -1.22368 39.5054 -84.2309 -39.3855
lowerback 5.90869 -1.32645 -0.0706622
upperback -4.43019 -1.87479 -0.681499
thorax -7.99212 -0.951969 -0.436075
lowerneck 9.71651 -7.40217 -2.73612
upperneck -6.7761 -10.5528 -2.70261
head -3.95246 -5.01955 0.255289
rclavicle -3.62782e-014 -1.43125e-014
rhumerus -46.5207 12.7601 -82.2086
rradius 35.9725
rwrist 4.09129
rhand -10.635 -2.60289
rfingers 7.12502
rthumb 15.3721 -32.0114
lclavicle -3.62782e-014 -1.43125e-014
lhumerus -46.6911 -14.3851 80.3184
lradius 41.4921
lwrist 16.1009
lhand 10.3495 6.45755
lfingers 7.12502
lthumb 35.4578 32.9055
rfemur -4.21713 3.89897 19.7723
rtibia 27.0537
rfoot -24.733 -16.131
rtoes 2.74947
lfemur -2.56296 6.46717 -10.5547
ltibia 17.2165
lfoot -13.8996 4.85987
ltoes -4.10912
2442
root -5.48953 16.5809 -1.21624 39.482 -84.2332 -39.2718
lowerback 5.95952 -1.33196 -0.0872373
upperback -4.41574 -1.88347 -0.682659
thorax -8.00584 -0.955006 -0.425851
lowerneck 9.721 -7.40396 -2.73555
upperneck -6.7823 -10.5566 -2.70992
head -3.95607 -5.02095 0.25347
rclavicle 3.57812e-015 9.54166e-015
rhumerus -46.5342 12.7776 -82.2373
rradius 35.9726
rwrist 4.077
rhand -10.6399 -2.60077
rfingers 7.12502
rthumb 15.3674 -32.0097
lclavicle 3.57812e-015 9.54166e-015
lhumerus -46.6963 -14.3703 80.3407
lradius 41.5113
lwrist 16.1043
lhand 10.364 6.4939
lfingers 7.12502
lthumb 35.4715 32.9385
rfemur -4.28927 3.92192 19.7316
rtibia 27.0182
rfoot -24.7497 -16.1414
rtoes 2.83778
lfemur -2.65378 6.55972 -10.595
ltibia 17.2042
lfoot -13.8754 4.76781
ltoes -4.05993
2443
root -5.49015 16.583 -1.20873 39.4887 -84.2301 -39.185
lowerback 6.01283 -1.3375 -0.0966487
upperback -4.40184 -1.89135 -0.681415
thorax -8.02175 -0.957961 -0.417135
lowerneck 9.73234 -7.40367 -2.73493
upperneck -6.79467 -10.5578 -2.71374
head -3.96304 -5.02098 0.253115
rclavicle 1.54058e-014 2.38542e-015
rhumerus -46.5472 12.7926 -82.2623
rradius 35.9721
rwrist 4.07029
rhand -10.6479 -2.59789
rfingers 7.12502
rthumb 15.3596 -32.0074
lclavicle 1.54058e-014 2.38542e-015
lhumerus -46.6996 -14.3512 80.3627
lradius 41.5249
lwrist 16.1077
lhand 10.3725 6.52128
lfingers 7.12502
lthumb 35.4795 32.964
rfemur -4.36196 3.95036 19.6981
rtibia 26.9771
rfoot -24.7647 -16.1609
rtoes 2.9272
lfemur -2.75455 6.64446 -10.6309
ltibia 17.2012
lfoot -13.8561 4.67695
ltoes -3.98979
2444
root -5.49057 16.5853 -1.20117 39.5319 -84.2181 -39.1304
lowerback 6.06657 -1.34442 -0.096681
upperback -4.38912 -1.89999 -0.677031
thorax -8.03937 -0.961706 -0.410237
lowerneck 9.74954 -7.40048 -2.73502
upperneck -6.80899 -10.5552 -2.7141
head -3.97159 -5.01912 0.254093
rclavicle -9.64106e-015 -1.03368e-014
rhumerus -46.5588 12.8048 -82.2842
rradius 35.9695
rwrist 4.07009
rhand -10.659 -2.59401
rfingers 7.12502
rthumb 15.349 -32.0043
lclavicle -9.64106e-015 -1.03368e-014
lhumerus -46.7031 -14.3266 80.3833
lradius 41.5343
lwrist 16.109
lhand 10.38 6.53463
lfingers 7.12502
lthumb 35.4867 32.9756
rfemur -4.43696 3.97521 19.673
rtibia 26.93
rfoot -24.7746 -16.1835
rtoes 3.01049
lfemur -2.86858 6.72417 -10.6596
ltibia 17.2091
lfoot -13.8393 4.58775
ltoes -3.92353
